<?xml version="1.0" ?>
<!-- Uploaded to: SVG Repo, www.svgrepo.com, Generator: SVG Repo Mixer Tools -->
<svg fill="#000000" width="800px" height="800px" viewBox="0 0 64 64" id="Layer_1_1_" version="1.1" xml:space="preserve" xmlns="http://www.w3.org/2000/svg" xmlns:xlink="http://www.w3.org/1999/xlink">
<g>
<path d="M44.372,38.579C42.818,37.585,40.978,37,39,37c-0.397,0-0.786,0.03-1.171,0.075C37.224,37.027,36.61,37,36,37H13.217   C8.686,37,5,40.687,5,45.217v3.566c0,2.851,1.444,5.456,3.863,6.968C10.169,56.568,11.675,57,13.217,57h45.62l-0.218-1.182   C57.189,48.065,51.732,41.465,44.372,38.579z M47,47c0,4.411-3.589,8-8,8s-8-3.589-8-8s3.589-8,8-8S47,42.589,47,47z M33.026,39   c-1.281,0.96-2.323,2.216-3.026,3.67c-0.703-1.454-1.744-2.71-3.026-3.67H33.026z M21,55c-4.411,0-8-3.589-8-8s3.589-8,8-8   s8,3.589,8,8S25.411,55,21,55z M13.217,55c-1.167,0-2.305-0.326-3.294-0.944C8.093,52.911,7,50.94,7,48.783v-3.566   C7,41.789,9.789,39,13.217,39h1.809C12.588,40.825,11,43.727,11,47s1.588,6.175,4.026,8H13.217z M26.974,55   c1.281-0.96,2.323-2.216,3.026-3.67c0.703,1.454,1.744,2.711,3.026,3.67H26.974z M44.974,55C47.412,53.175,49,50.273,49,47   c0-1.486-0.335-2.892-0.918-4.16c4.102,2.907,7.104,7.237,8.317,12.16H44.974z"/>
<path d="M36,33H13.217C6.48,33,1,38.48,1,45.217v3.566c0,4.24,2.146,8.112,5.742,10.359C8.686,60.357,10.925,61,13.217,61H63v-1   C63,45.112,50.888,33,36,33z M13.217,59c-1.917,0-3.789-0.537-5.415-1.553C4.795,55.567,3,52.329,3,48.783v-3.566   C3,39.583,7.583,35,13.217,35H36c13.45,0,24.454,10.677,24.98,24H13.217z"/>
<path d="M39,51v-2c-1.103,0-2-0.897-2-2s0.897-2,2-2s2,0.897,2,2h2c0-2.206-1.794-4-4-4s-4,1.794-4,4S36.794,51,39,51z"/>
<path d="M21,43c-2.206,0-4,1.794-4,4s1.794,4,4,4v-2c-1.103,0-2-0.897-2-2s0.897-2,2-2s2,0.897,2,2h2C25,44.794,23.206,43,21,43z"/>
<path d="M50.783,7H28c-0.61,0-1.221,0.028-1.82,0.076C25.792,7.03,25.4,7,25,7c-1.978,0-3.818,0.584-5.371,1.579   C12.268,11.464,6.81,18.065,5.381,25.818L5.163,27h45.62c1.542,0,3.047-0.432,4.354-1.249C57.556,24.239,59,21.634,59,18.783   v-3.566C59,10.687,55.314,7,50.783,7z M51,17c0,4.411-3.589,8-8,8s-8-3.589-8-8s3.589-8,8-8S51,12.589,51,17z M37.026,9   c-1.281,0.96-2.323,2.216-3.026,3.67c-0.703-1.454-1.744-2.71-3.026-3.67H37.026z M33,17c0,4.411-3.589,8-8,8s-8-3.589-8-8   s3.589-8,8-8S33,12.589,33,17z M7.602,25c1.212-4.924,4.214-9.254,8.317-12.161C15.335,14.108,15,15.514,15,17   c0,3.273,1.588,6.175,4.026,8H7.602z M30.974,25c1.281-0.96,2.323-2.216,3.026-3.67c0.703,1.454,1.744,2.711,3.026,3.67H30.974z    M57,18.783c0,2.157-1.093,4.128-2.922,5.272C53.088,24.674,51.95,25,50.783,25h-1.809C51.412,23.175,53,20.273,53,17   s-1.588-6.175-4.026-8h1.809C54.211,9,57,11.789,57,15.217V18.783z"/>
<path d="M50.783,3H28C13.112,3,1,15.112,1,30v1h49.783c2.292,0,4.531-0.643,6.475-1.857C60.854,26.896,63,23.023,63,18.783v-3.566   C63,8.48,57.52,3,50.783,3z M61,18.783c0,3.546-1.795,6.784-4.802,8.664C54.572,28.463,52.7,29,50.783,29H3.02   C3.546,15.677,14.55,5,28,5h22.783C56.417,5,61,9.583,61,15.217V18.783z"/>
<path d="M25,15c1.103,0,2,0.897,2,2s-0.897,2-2,2v2c2.206,0,4-1.794,4-4s-1.794-4-4-4s-4,1.794-4,4h2C23,15.897,23.897,15,25,15z"/>
<path d="M43,15c1.103,0,2,0.897,2,2s-0.897,2-2,2v2c2.206,0,4-1.794,4-4s-1.794-4-4-4s-4,1.794-4,4h2C41,15.897,41.897,15,43,15z"/>
</g>
</svg>